<svg xmlns="http://www.w3.org/2000/svg" width="128" height="128" viewBox="0 0 128 128">
  <defs>
    <linearGradient id="towerGrad" x1="0%" y1="0%" x2="100%" y2="0%">
      <stop offset="0%" stop-color="#b4a1f9"></stop>
      <stop offset="48%" stop-color="#8b5cf6"></stop>
      <stop offset="100%" stop-color="#6d28d9"></stop>
    </linearGradient>
    <radialGradient id="glow" cx="50%" cy="50%" r="50%">
      <stop offset="0%" stop-color="#e9e2ff" stop-opacity="0.65"></stop>
      <stop offset="100%" stop-color="#e9e2ff" stop-opacity="0"></stop>
    </radialGradient>
  </defs>

  <ellipse cx="64" cy="120" rx="36" ry="4" fill="#6d28d9" opacity="0.14"></ellipse>

  <polygon points="46,110 82,110 92,117 36,117" fill="url(#towerGrad)"></polygon>

  <path d="M55,58 C52,75 45,95 41,110 L87,110 C83,95 76,75 73,58 Z" fill="url(#towerGrad)"></path>
  <line x1="60" y1="70" x2="57" y2="105" stroke="#ffffff" stroke-width="1" opacity="0.18"></line>

  <polygon points="47,58 53,58 50,63" fill="#6d28d9" opacity="0.8"></polygon>
  <polygon points="81,58 75,58 78,63" fill="#6d28d9" opacity="0.8"></polygon>
  <rect x="45" y="52" width="38" height="6" rx="3" fill="url(#towerGrad)"></rect>

  <circle cx="64" cy="43" r="18" fill="url(#glow)"></circle>

  <rect x="49" y="32" width="30" height="3.5" rx="1.5" fill="url(#towerGrad)"></rect>

  <rect x="53" y="35" width="22" height="17" fill="#c4b5fd" opacity="0.28"></rect>
  <rect x="53" y="35" width="22" height="17" fill="none" stroke="#6d28d9" stroke-width="1.6"></rect>
  <line x1="59" y1="35" x2="59" y2="52" stroke="#6d28d9" stroke-width="1.1" opacity="0.55"></line>
  <line x1="64" y1="35" x2="64" y2="52" stroke="#6d28d9" stroke-width="1.1" opacity="0.55"></line>
  <line x1="69" y1="35" x2="69" y2="52" stroke="#6d28d9" stroke-width="1.1" opacity="0.55"></line>
  <line x1="53" y1="43.5" x2="75" y2="43.5" stroke="#6d28d9" stroke-width="1" opacity="0.5"></line>

  <path d="M53,32 C53,20.5 58,16.5 64,16.5 C70,16.5 75,20.5 75,32 Z" fill="url(#towerGrad)"></path>
  <path d="M56,29 C56.5,21.5 60,18.5 64,18.5" stroke="#e9e2ff" stroke-width="1.3" opacity="0.4" fill="none"></path>

  <line x1="64" y1="8" x2="64" y2="16.5" stroke="#6d28d9" stroke-width="1.6"></line>
  <circle cx="64" cy="7" r="2.4" fill="#6d28d9"></circle>
</svg>